<svg width="36" height="30" viewBox="0 0 36 30" fill="none" xmlns="http://www.w3.org/2000/svg">
<path d="M31.8917 14.8969H4.0346C3.18212 14.8969 2.36455 15.2332 1.76175 15.8319C1.15896 16.4305 0.820313 17.2425 0.820312 18.0891C0.820313 18.9357 1.15896 19.7477 1.76175 20.3463C2.36455 20.945 3.18212 21.2813 4.0346 21.2813H31.8917C32.7442 21.2813 33.5618 20.945 34.1646 20.3463C34.7674 19.7477 35.106 18.9357 35.106 18.0891C35.106 17.2425 34.7674 16.4305 34.1646 15.8319C33.5618 15.2332 32.7442 14.8969 31.8917 14.8969ZM32.9632 23.4094H2.96317C2.67901 23.4094 2.40649 23.5215 2.20556 23.7211C2.00462 23.9206 1.89174 24.1913 1.89174 24.4735V25.5376C1.89174 26.6664 2.34327 27.749 3.147 28.5472C3.95073 29.3454 5.04081 29.7938 6.17745 29.7938H29.7489C30.8855 29.7938 31.9756 29.3454 32.7793 28.5472C33.5831 27.749 34.0346 26.6664 34.0346 25.5376V24.4735C34.0346 24.1913 33.9217 23.9206 33.7208 23.7211C33.5199 23.5215 33.2473 23.4094 32.9632 23.4094ZM4.7471 12.7688H31.1792C33.4942 12.7688 34.8368 9.84925 33.5109 7.72245C30.8203 3.40501 24.8973 0.0066504 17.9632 0C11.0297 0.0066504 5.10603 3.40501 2.4154 7.72179C1.08817 9.84858 2.43214 12.7688 4.7471 12.7688ZM26.5346 5.32032C26.7465 5.32032 26.9537 5.38273 27.1299 5.49965C27.306 5.61657 27.4434 5.78276 27.5245 5.97719C27.6056 6.17162 27.6268 6.38557 27.5854 6.59198C27.5441 6.79839 27.4421 6.98798 27.2922 7.1368C27.1424 7.28561 26.9515 7.38695 26.7436 7.42801C26.5358 7.46906 26.3204 7.44799 26.1246 7.36746C25.9288 7.28692 25.7615 7.15054 25.6437 6.97555C25.526 6.80057 25.4632 6.59484 25.4632 6.38439C25.4632 6.10218 25.576 5.83153 25.777 5.63198C25.9779 5.43243 26.2504 5.32032 26.5346 5.32032ZM17.9632 3.19219C18.1751 3.19219 18.3822 3.2546 18.5584 3.37152C18.7346 3.48844 18.8719 3.65463 18.953 3.84906C19.0341 4.04349 19.0554 4.25744 19.014 4.46385C18.9727 4.67026 18.8706 4.85985 18.7208 5.00867C18.5709 5.15748 18.38 5.25882 18.1722 5.29988C17.9644 5.34094 17.7489 5.31986 17.5532 5.23933C17.3574 5.15879 17.19 5.02241 17.0723 4.84742C16.9546 4.67244 16.8917 4.46671 16.8917 4.25626C16.8917 3.97405 17.0046 3.7034 17.2056 3.50385C17.4065 3.3043 17.679 3.19219 17.9632 3.19219ZM9.39174 5.32032C9.60365 5.32032 9.8108 5.38273 9.98699 5.49965C10.1632 5.61657 10.3005 5.78276 10.3816 5.97719C10.4627 6.17162 10.4839 6.38557 10.4426 6.59198C10.4012 6.79839 10.2992 6.98798 10.1494 7.1368C9.99951 7.28561 9.8086 7.38695 9.60077 7.42801C9.39293 7.46906 9.1775 7.44799 8.98172 7.36746C8.78594 7.28692 8.61861 7.15054 8.50088 6.97555C8.38315 6.80057 8.32031 6.59484 8.32031 6.38439C8.32031 6.10218 8.43319 5.83153 8.63413 5.63198C8.83506 5.43243 9.10758 5.32032 9.39174 5.32032Z" fill="#1E1E1E"/>
</svg>
