<svg width="37" height="20" viewBox="0 0 37 20" fill="none" xmlns="http://www.w3.org/2000/svg">
<path d="M21.2641 0C15.641 0 10.7304 3.39959 7.99725 6.30821L2.53914 2.20846C1.78101 1.63866 0.649141 2.2457 0.842891 3.11841L2.35414 9.93125L0.842266 16.7447C0.648516 17.6174 1.78039 18.2238 2.53851 17.6547L7.99662 13.5549C10.7297 16.4629 15.641 19.8625 21.2641 19.8625C29.8553 19.8625 36.8203 11.9175 36.8203 9.93125C36.8203 7.945 29.8553 0 21.2641 0ZM26.7285 11.4209C25.9003 11.4209 25.2285 10.7537 25.2285 9.93125C25.2285 9.1082 25.9003 8.44156 26.7285 8.44156C27.5572 8.44156 28.2285 9.1082 28.2285 9.93125C28.2285 10.7537 27.5566 11.4209 26.7285 11.4209Z" fill="#1E1E1E"/>
</svg>
