<svg width="23" height="22" viewBox="0 0 23 22" fill="none" xmlns="http://www.w3.org/2000/svg">
<path d="M21.3198 15.9201V18.9201C21.3209 19.1986 21.2638 19.4743 21.1523 19.7294C21.0407 19.9846 20.8771 20.2137 20.6718 20.402C20.4666 20.5902 20.2243 20.7336 19.9605 20.8228C19.6967 20.912 19.4171 20.9452 19.1398 20.9201C16.0626 20.5857 13.1068 19.5342 10.5098 17.8501C8.09359 16.3148 6.04509 14.2663 4.50976 11.8501C2.81974 9.2413 1.768 6.27109 1.43976 3.1801C1.41477 2.90356 1.44763 2.62486 1.53626 2.36172C1.62488 2.09859 1.76733 1.85679 1.95452 1.65172C2.14172 1.44665 2.36956 1.28281 2.62355 1.17062C2.87753 1.05843 3.1521 1.00036 3.42976 1.0001H6.42976C6.91506 0.995321 7.38555 1.16718 7.75352 1.48363C8.12149 1.80008 8.36183 2.23954 8.42976 2.7201C8.55638 3.68016 8.79121 4.62282 9.12976 5.5301C9.2643 5.88802 9.29342 6.27701 9.21366 6.65098C9.13391 7.02494 8.94862 7.36821 8.67976 7.6401L7.40976 8.9101C8.83331 11.4136 10.9062 13.4865 13.4098 14.9101L14.6798 13.6401C14.9516 13.3712 15.2949 13.1859 15.6689 13.1062C16.0428 13.0264 16.4318 13.0556 16.7898 13.1901C17.697 13.5286 18.6397 13.7635 19.5998 13.8901C20.0855 13.9586 20.5292 14.2033 20.8463 14.5776C21.1634 14.9519 21.3319 15.4297 21.3198 15.9201Z" stroke="#D9D9D9" stroke-width="2" stroke-linecap="round" stroke-linejoin="round"/>
</svg>
