<svg width="23" height="23" viewBox="0 0 23 23" fill="none" xmlns="http://www.w3.org/2000/svg">
<path fill-rule="evenodd" clip-rule="evenodd" d="M1.69135 1.5976C0.09375 3.1952 0.09375 5.76648 0.09375 10.9091V11.8182C0.09375 16.9608 0.09375 19.5321 1.69135 21.1297C3.28895 22.7273 5.86023 22.7273 11.0028 22.7273H11.9119C17.0545 22.7273 19.6258 22.7273 21.2234 21.1297C22.821 19.5321 22.821 16.9608 22.821 11.8182V10.9091C22.821 5.76648 22.821 3.1952 21.2234 1.5976C19.6258 0 17.0545 0 11.9119 0H11.0028C5.86023 0 3.28895 0 1.69135 1.5976ZM3.92903 6.91293C4.05214 12.822 7.00668 16.3732 12.1866 16.3732H12.4802V12.9925C14.3836 13.1819 15.8229 14.5739 16.4006 16.3732H19.09C18.3514 13.6838 16.41 12.197 15.1979 11.6288C16.41 10.9281 18.1145 9.22353 18.5217 6.91293H16.0785C15.5482 8.78793 13.9764 10.4925 12.4802 10.6535V6.91293H10.0369V13.466C8.52178 13.0872 6.60895 11.25 6.52372 6.91293H3.92903Z" fill="#D9D9D9"/>
</svg>
