<svg width="16" height="17" viewBox="0 0 16 17" fill="none" xmlns="http://www.w3.org/2000/svg">
<path d="M15.1641 1.06251H11.1797L10.8676 0.441607C10.8015 0.308866 10.6996 0.197207 10.5735 0.119191C10.4474 0.0411758 10.302 -0.000100538 10.1537 5.82141e-06H6.35859C6.21063 -0.000562966 6.0655 0.0405594 5.93984 0.118662C5.81417 0.196764 5.71304 0.308687 5.64805 0.441607L5.33594 1.06251H1.35156C1.21067 1.06251 1.07554 1.11848 0.975912 1.2181C0.876283 1.31773 0.820313 1.45286 0.820312 1.59376L0.820313 2.65626C0.820313 2.79715 0.876283 2.93228 0.975912 3.03191C1.07554 3.13153 1.21067 3.1875 1.35156 3.1875H15.1641C15.305 3.1875 15.4401 3.13153 15.5397 3.03191C15.6393 2.93228 15.6953 2.79715 15.6953 2.65626V1.59376C15.6953 1.45286 15.6393 1.31773 15.5397 1.2181C15.4401 1.11848 15.305 1.06251 15.1641 1.06251ZM2.58672 15.5059C2.61206 15.9105 2.79064 16.2902 3.08611 16.5678C3.38159 16.8454 3.77174 16.9999 4.17715 17H12.3385C12.7439 16.9999 13.134 16.8454 13.4295 16.5678C13.725 16.2902 13.9036 15.9105 13.9289 15.5059L14.6328 4.25H1.88281L2.58672 15.5059Z" fill="#1E1E1E" fill-opacity="0.64"/>
</svg>
