<svg width="8" height="10" viewBox="0 0 8 10" fill="none" xmlns="http://www.w3.org/2000/svg">
<path d="M1.96077 0.171479C2.10763 0.171122 2.25274 0.194268 2.38542 0.239214C2.51811 0.284161 2.63501 0.349766 2.72754 0.43121L7.47559 4.64306C7.62018 4.76866 7.69922 4.92622 7.69922 5.08881C7.69922 5.2514 7.62018 5.40896 7.47559 5.53456L2.56042 9.74641C2.39356 9.88976 2.15379 9.97992 1.89385 9.99703C1.63391 10.0141 1.37509 9.95682 1.17434 9.83767C0.973589 9.71851 0.847344 9.54729 0.823379 9.36167C0.799412 9.17605 0.879688 8.99124 1.04655 8.84788L5.44071 5.0853L1.194 1.32272C1.0738 1.21968 0.997436 1.09421 0.973961 0.961148C0.950487 0.828089 0.980879 0.693013 1.06154 0.571903C1.14221 0.450793 1.26977 0.348718 1.42913 0.277755C1.58849 0.206792 1.77298 0.169913 1.96077 0.171479Z" fill="#1E1E1E"/>
</svg>
