<svg width="20" height="20" viewBox="0 0 20 20" fill="none" xmlns="http://www.w3.org/2000/svg">
<path d="M19.5587 16.7162L15.8593 13.0421C15.6923 12.8763 15.466 12.7842 15.2285 12.7842H14.6237C15.6478 11.4834 16.2563 9.84719 16.2563 8.0673C16.2563 3.83315 12.8018 0.402344 8.53831 0.402344C4.27486 0.402344 0.820312 3.83315 0.820312 8.0673C0.820312 12.3014 4.27486 15.7322 8.53831 15.7322C10.3305 15.7322 11.978 15.1279 13.2878 14.1108V14.7115C13.2878 14.9473 13.3806 15.1721 13.5476 15.3379L17.247 19.012C17.5958 19.3584 18.1598 19.3584 18.5049 19.012L19.555 17.9691C19.9038 17.6227 19.9038 17.0626 19.5587 16.7162ZM8.53831 12.7842C5.91493 12.7842 3.78877 10.6763 3.78877 8.0673C3.78877 5.46195 5.91122 3.3504 8.53831 3.3504C11.1617 3.3504 13.2878 5.45826 13.2878 8.0673C13.2878 10.6726 11.1654 12.7842 8.53831 12.7842Z" fill="#1E1E1E"/>
</svg>
