<svg width="33" height="22" viewBox="0 0 33 22" fill="none" xmlns="http://www.w3.org/2000/svg">
<path d="M10.2516 17.1669H19.6802C22.2829 17.1669 24.3945 15.0698 24.3945 12.485H25.9659C29.4329 12.485 32.2516 9.68565 32.2516 6.24251C32.2516 2.79938 29.4329 0 25.9659 0H6.71592C6.06279 0 5.53734 0.521835 5.53734 1.17047V12.485C5.53734 15.0698 7.64895 17.1669 10.2516 17.1669ZM25.9659 3.12126C27.6994 3.12126 29.1088 4.52095 29.1088 6.24251C29.1088 7.96408 27.6994 9.36377 25.9659 9.36377H24.3945V3.12126H25.9659ZM28.3083 21.8488H3.19493C0.857433 21.8488 0.199398 18.7275 1.42708 18.7275H30.0713C31.2989 18.7275 30.6507 21.8488 28.3083 21.8488Z" fill="#1E1E1E"/>
</svg>
