<svg width="29" height="34" viewBox="0 0 29 34" fill="none" xmlns="http://www.w3.org/2000/svg">
<path d="M14.6859 1.00687C14.7392 1.31817 15.7596 7.26608 15.7596 9.53794C15.7596 13.002 13.9056 15.4726 11.1645 16.4661L12.0248 32.2367C12.0715 33.1441 11.3445 33.9124 10.4242 33.9124H6.15579C5.24209 33.9124 4.50846 33.1507 4.55514 32.2367L5.41549 16.4661C2.66772 15.4726 0.820312 12.9954 0.820312 9.53794C0.820312 7.25946 1.84072 1.31817 1.89408 1.00687C2.1075 -0.337704 4.91529 -0.357575 5.08869 1.07973V10.4321C5.17539 10.6573 6.09576 10.6441 6.15579 10.4321C6.24916 8.75637 6.68266 1.2122 6.68933 1.03999C6.90942 -0.337704 9.67053 -0.337704 9.88395 1.03999C9.89729 1.21882 10.3241 8.75637 10.4175 10.4321C10.4775 10.6441 11.4046 10.6573 11.4846 10.4321V1.07973C11.658 -0.350951 14.4725 -0.337704 14.6859 1.00687ZM22.6357 19.9302L21.6353 32.1903C21.5553 33.1176 22.2956 33.9124 23.2293 33.9124H26.9641C27.8512 33.9124 28.5648 33.2037 28.5648 32.3228V1.58974C28.5648 0.715433 27.8512 9.46668e-05 26.9641 9.46668e-05C21.4619 9.46668e-05 12.1982 11.8231 22.6357 19.9302Z" fill="#1E1E1E"/>
</svg>
