<svg width="16" height="20" viewBox="0 0 16 20" fill="none" xmlns="http://www.w3.org/2000/svg">
<path d="M14.2862 6.00023H11.4158V3.70382C11.4158 2.05832 9.97463 0.719727 8.20318 0.719727C6.43173 0.719727 4.99052 2.05832 4.99052 3.70382V6.00023H5.60867V3.70382C5.60867 2.39923 6.77263 1.33787 8.20318 1.33787C9.63372 1.33787 10.7977 2.39923 10.7977 3.70382V6.00023H5.60867V7.04521C6.05852 7.17734 6.38784 7.58964 6.38784 8.07705C6.38784 8.67078 5.89966 9.1537 5.29959 9.1537C4.69953 9.1537 4.21135 8.67078 4.21135 8.07705C4.21135 7.58964 4.54067 7.17734 4.99052 7.04521V6.00023H2.12016L1.07812 16.6092H15.3284L14.2862 6.00023ZM11.1068 9.15386C10.5067 9.15386 10.0185 8.67093 10.0185 8.0772C10.0185 7.58979 10.3478 7.17749 10.7977 7.04536V6.02558H10.7982V6.0126H11.4158V7.04521C11.8657 7.17734 12.195 7.58964 12.195 8.07705C12.195 8.67078 11.7067 9.15386 11.1068 9.15386Z" fill="white"/>
<path d="M15.3922 17.2275H1.02028L0.820312 19.2643H15.5921L15.3922 17.2275Z" fill="white"/>
<path d="M11.1107 8.53549C11.3704 8.53549 11.5808 8.33014 11.5808 8.07683C11.5808 7.82352 11.3704 7.61816 11.1107 7.61816C10.8511 7.61816 10.6406 7.82352 10.6406 8.07683C10.6406 8.33014 10.8511 8.53549 11.1107 8.53549Z" fill="white"/>
<path d="M5.30213 8.53549C5.56176 8.53549 5.77223 8.33014 5.77223 8.07683C5.77223 7.82352 5.56176 7.61816 5.30213 7.61816C5.0425 7.61816 4.83203 7.82352 4.83203 8.07683C4.83203 8.33014 5.0425 8.53549 5.30213 8.53549Z" fill="white"/>
</svg>
