<svg width="26" height="21" viewBox="0 0 26 21" fill="none" xmlns="http://www.w3.org/2000/svg">
<path d="M1.36753 0.178656C0.942198 0.249557 0.561319 0.493587 0.308684 0.857063C0.0560484 1.22054 -0.0476486 1.67369 0.0204048 2.11682C0.0884582 2.55995 0.322687 2.95677 0.671565 3.21997C1.02044 3.48318 1.45539 3.59122 1.88072 3.52031H6.69189L6.98056 4.35573L8.29561 8.5328L9.61066 12.7099C9.73896 13.1443 10.2842 13.5453 10.7012 13.5453H21.9272C22.3763 13.5453 22.8895 13.1443 23.0178 12.7099L25.6158 4.35573C25.7441 3.92131 25.5517 3.52031 25.1026 3.52031H10.8616L9.64274 1.11432C9.51292 0.838163 9.31247 0.604686 9.06347 0.439598C8.81446 0.27451 8.52656 0.184215 8.23146 0.178656L1.81657 0.178656C1.72055 0.169615 1.62393 0.169615 1.5279 0.178656C1.46381 0.174642 1.39955 0.174642 1.33546 0.178656L1.36753 0.178656ZM11.5031 16.887C10.605 16.887 9.89933 17.6221 9.89933 18.5578C9.89933 19.4934 10.605 20.2286 11.5031 20.2286C12.4011 20.2286 13.1068 19.4934 13.1068 18.5578C13.1068 17.6221 12.4011 16.887 11.5031 16.887ZM21.1254 16.887C20.2273 16.887 19.5217 17.6221 19.5217 18.5578C19.5217 19.4934 20.2273 20.2286 21.1254 20.2286C22.0235 20.2286 22.7291 19.4934 22.7291 18.5578C22.7291 17.6221 22.0235 16.887 21.1254 16.887Z" fill="#D9D9D9"/>
</svg>
