<svg width="18" height="22" viewBox="0 0 18 22" fill="none" xmlns="http://www.w3.org/2000/svg">
<path d="M16.3215 6.58776H13.0181V3.94496C13.0181 2.05125 11.3595 0.510742 9.32089 0.510742C7.28223 0.510742 5.62364 2.05125 5.62364 3.94496V6.58776H6.33502V3.94496C6.33502 2.44358 7.67456 1.22213 9.32089 1.22213C10.9672 1.22213 12.3068 2.44358 12.3068 3.94496V6.58776H6.33502V7.79036C6.85273 7.94242 7.23173 8.41691 7.23173 8.97784C7.23173 9.66113 6.66991 10.2169 5.97933 10.2169C5.28875 10.2169 4.72693 9.66113 4.72693 8.97784C4.72693 8.41691 5.10592 7.94242 5.62364 7.79036V6.58776H2.32031L1.12109 18.7969H17.5209L16.3215 6.58776ZM12.6624 10.2171C11.9719 10.2171 11.4101 9.66131 11.4101 8.97802C11.4101 8.41709 11.789 7.9426 12.3068 7.79054V6.61693H12.3073V6.60199H13.0181V7.79036C13.5359 7.94242 13.9148 8.41691 13.9148 8.97784C13.9148 9.66113 13.3529 10.2171 12.6624 10.2171Z" fill="white"/>
<path d="M17.5902 19.5088H1.05045L0.820312 21.8528H17.8203L17.5902 19.5088Z" fill="white"/>
<path d="M12.6621 9.50492C12.9609 9.50492 13.2031 9.26859 13.2031 8.97707C13.2031 8.68555 12.9609 8.44922 12.6621 8.44922C12.3633 8.44922 12.1211 8.68555 12.1211 8.97707C12.1211 9.26859 12.3633 9.50492 12.6621 9.50492Z" fill="white"/>
<path d="M5.97851 9.50492C6.2773 9.50492 6.51952 9.26859 6.51952 8.97707C6.51952 8.68555 6.2773 8.44922 5.97851 8.44922C5.67972 8.44922 5.4375 8.68555 5.4375 8.97707C5.4375 9.26859 5.67972 9.50492 5.97851 9.50492Z" fill="white"/>
</svg>
