<svg width="17" height="17" viewBox="0 0 17 17" fill="none" xmlns="http://www.w3.org/2000/svg">
<g clip-path="url(#clip0_2601_943)">
<path d="M8.32096 15.1663C12.0029 15.1663 14.9876 12.1816 14.9876 8.49967C14.9876 4.81778 12.0029 1.83301 8.32096 1.83301C4.63907 1.83301 1.6543 4.81778 1.6543 8.49967C1.6543 12.1816 4.63907 15.1663 8.32096 15.1663Z" stroke="#D9D9D9" stroke-width="2" stroke-linecap="round" stroke-linejoin="round"/>
<path d="M10.3208 6.73567C9.96252 6.32948 9.48903 6.04201 8.96334 5.91154C8.43766 5.78106 7.8847 5.81376 7.37805 6.00528C6.8714 6.19679 6.43509 6.53805 6.12716 6.98365C5.81923 7.42924 5.6543 7.95804 5.6543 8.49967C5.6543 9.04131 5.81923 9.57011 6.12716 10.0157C6.43509 10.4613 6.8714 10.8026 7.37805 10.9941C7.8847 11.1856 8.43766 11.2183 8.96334 11.0878C9.48903 10.9573 9.96252 10.6699 10.3208 10.2637" stroke="#D9D9D9" stroke-width="2" stroke-linecap="round" stroke-linejoin="round"/>
</g>
<defs>
<clipPath id="clip0_2601_943">
<rect width="16" height="16" fill="white" transform="translate(0.320312 0.5)"/>
</clipPath>
</defs>
</svg>
