<svg width="23" height="23" viewBox="0 0 23 23" fill="none" xmlns="http://www.w3.org/2000/svg">
<g clip-path="url(#clip0_2601_931)">
<path d="M11.8699 2.78478C14.7977 2.78478 15.1444 2.79762 16.2958 2.84899C17.3659 2.89607 17.9438 3.07585 18.329 3.22566C18.8384 3.42256 19.2065 3.66226 19.5874 4.04322C19.9727 4.42845 20.2081 4.79228 20.405 5.30165C20.5548 5.68688 20.7346 6.26902 20.7817 7.33483C20.833 8.49054 20.8459 8.83725 20.8459 11.7608C20.8459 14.6885 20.833 15.0353 20.7817 16.1867C20.7346 17.2568 20.5548 17.8346 20.405 18.2199C20.2081 18.7292 19.9684 19.0973 19.5874 19.4783C19.2022 19.8635 18.8384 20.0989 18.329 20.2958C17.9438 20.4457 17.3616 20.6254 16.2958 20.6725C15.1401 20.7239 14.7934 20.7367 11.8699 20.7367C8.94212 20.7367 8.59541 20.7239 7.44398 20.6725C6.37388 20.6254 5.79603 20.4457 5.4108 20.2958C4.90143 20.0989 4.53332 19.8592 4.15236 19.4783C3.76713 19.0931 3.53171 18.7292 3.33481 18.2199C3.185 17.8346 3.00522 17.2525 2.95813 16.1867C2.90677 15.031 2.89393 14.6843 2.89393 11.7608C2.89393 8.83297 2.90677 8.48626 2.95813 7.33483C3.00522 6.26474 3.185 5.68688 3.33481 5.30165C3.53171 4.79228 3.77141 4.42417 4.15236 4.04322C4.5376 3.65798 4.90143 3.42256 5.4108 3.22566C5.79603 3.07585 6.37816 2.89607 7.44398 2.84899C8.59541 2.79762 8.94212 2.78478 11.8699 2.78478ZM11.8699 0.811523C8.89503 0.811523 8.52264 0.824365 7.35409 0.875729C6.18983 0.927094 5.3894 1.11543 4.69597 1.3851C3.97259 1.6676 3.36049 2.03999 2.75268 2.65209C2.14058 3.2599 1.76819 3.872 1.48568 4.59111C1.21602 5.28881 1.02768 6.08496 0.976315 7.24923C0.924951 8.42205 0.912109 8.79445 0.912109 11.7693C0.912109 14.7442 0.924951 15.1166 0.976315 16.2851C1.02768 17.4494 1.21602 18.2498 1.48568 18.9432C1.76819 19.6666 2.14058 20.2787 2.75268 20.8865C3.36049 21.4944 3.97259 21.871 4.69169 22.1493C5.3894 22.4189 6.18555 22.6073 7.34981 22.6586C8.51836 22.71 8.89075 22.7228 11.8656 22.7228C14.8405 22.7228 15.2129 22.71 16.3814 22.6586C17.5457 22.6073 18.3461 22.4189 19.0396 22.1493C19.7587 21.871 20.3708 21.4944 20.9786 20.8865C21.5864 20.2787 21.9631 19.6666 22.2413 18.9475C22.5109 18.2498 22.6993 17.4537 22.7506 16.2894C22.802 15.1209 22.8149 14.7485 22.8149 11.7736C22.8149 8.79873 22.802 8.42633 22.7506 7.25779C22.6993 6.09352 22.5109 5.29309 22.2413 4.59967C21.9716 3.872 21.5992 3.2599 20.9871 2.65209C20.3793 2.04428 19.7672 1.6676 19.0481 1.38938C18.3504 1.11971 17.5543 0.931374 16.39 0.88001C15.2172 0.824365 14.8448 0.811523 11.8699 0.811523Z" fill="#D9D9D9"/>
<path d="M11.8689 6.14062C8.76138 6.14062 6.24023 8.66177 6.24023 11.7693C6.24023 14.8769 8.76138 17.398 11.8689 17.398C14.9765 17.398 17.4977 14.8769 17.4977 11.7693C17.4977 8.66177 14.9765 6.14062 11.8689 6.14062ZM11.8689 15.4205C9.85288 15.4205 8.21777 13.7854 8.21777 11.7693C8.21777 9.75327 9.85288 8.11816 11.8689 8.11816C13.885 8.11816 15.5201 9.75327 15.5201 11.7693C15.5201 13.7854 13.885 15.4205 11.8689 15.4205Z" fill="#D9D9D9"/>
<path d="M19.0344 5.9176C19.0344 6.64526 18.4437 7.23168 17.7203 7.23168C16.9927 7.23168 16.4062 6.64098 16.4062 5.9176C16.4062 5.18993 16.9969 4.60352 17.7203 4.60352C18.4437 4.60352 19.0344 5.19421 19.0344 5.9176Z" fill="#D9D9D9"/>
</g>
<defs>
<clipPath id="clip0_2601_931">
<rect width="21.9156" height="21.9156" fill="white" transform="translate(0.912109 0.811523)"/>
</clipPath>
</defs>
</svg>
