<svg width="22" height="23" viewBox="0 0 22 23" fill="none" xmlns="http://www.w3.org/2000/svg">
<path fill-rule="evenodd" clip-rule="evenodd" d="M21.9175 11.7693C21.9175 17.8211 17.0116 22.7271 10.9597 22.7271C4.90792 22.7271 0.00195312 17.8211 0.00195312 11.7693C0.00195312 5.71749 4.90792 0.811523 10.9597 0.811523C17.0116 0.811523 21.9175 5.71749 21.9175 11.7693ZM11.3524 8.90105C10.2866 9.34435 8.1565 10.2619 4.96208 11.6536C4.44336 11.8599 4.17163 12.0617 4.14689 12.259C4.10509 12.5925 4.52269 12.7238 5.09136 12.9026C5.16872 12.927 5.24887 12.9522 5.33104 12.9789C5.89052 13.1607 6.64313 13.3735 7.03438 13.382C7.38928 13.3896 7.78539 13.2433 8.22271 12.943C11.2074 10.9283 12.748 9.90997 12.8448 9.88802C12.913 9.87253 13.0076 9.85305 13.0716 9.91C13.1357 9.96695 13.1294 10.0748 13.1226 10.1037C13.0813 10.2801 11.442 11.8041 10.5937 12.5928C10.3292 12.8386 10.1416 13.013 10.1033 13.0529C10.0174 13.1421 9.92983 13.2265 9.84569 13.3076C9.32591 13.8087 8.93612 14.1844 9.86727 14.798C10.3147 15.0929 10.6728 15.3368 11.03 15.58C11.4201 15.8457 11.8092 16.1107 12.3127 16.4407C12.4409 16.5248 12.5634 16.6121 12.6828 16.6972C13.1368 17.0208 13.5446 17.3116 14.0486 17.2652C14.3414 17.2383 14.6438 16.963 14.7974 16.1418C15.1604 14.2012 15.874 9.9964 16.0389 8.26371C16.0533 8.11191 16.0352 7.91762 16.0206 7.83234C16.006 7.74706 15.9755 7.62554 15.8646 7.53559C15.7333 7.42906 15.5306 7.40659 15.44 7.40819C15.0278 7.41545 14.3955 7.63532 11.3524 8.90105Z" fill="#D9D9D9"/>
</svg>
