<svg width="23" height="23" viewBox="0 0 23 23" fill="none" xmlns="http://www.w3.org/2000/svg">
<path d="M0.820312 22.7271L2.36079 17.0994C1.41021 15.452 0.910714 13.5847 0.911627 11.6698C0.914367 5.68318 5.78601 0.811523 11.7717 0.811523C14.6764 0.812437 17.4031 1.94383 19.454 3.99659C21.504 6.04935 22.6327 8.77784 22.6318 11.6798C22.629 17.6673 17.7574 22.539 11.7717 22.539C9.95452 22.5381 8.16384 22.0824 6.57771 21.2168L0.820312 22.7271ZM6.84434 19.2507C8.37478 20.1593 9.83582 20.7036 11.768 20.7045C16.7429 20.7045 20.7954 16.6556 20.7981 11.678C20.8 6.69038 16.7666 2.64695 11.7753 2.64513C6.79686 2.64513 2.74705 6.69403 2.74523 11.6707C2.74431 13.7025 3.33969 15.2238 4.33958 16.8154L3.42735 20.1465L6.84434 19.2507ZM17.2424 14.2613C17.1748 14.1481 16.994 14.0805 16.7219 13.9444C16.4507 13.8084 15.1165 13.1518 14.8673 13.0614C14.6189 12.971 14.4381 12.9254 14.2564 13.1975C14.0756 13.4687 13.5551 14.0805 13.3971 14.2613C13.2391 14.4421 13.0802 14.4649 12.809 14.3289C12.5378 14.1928 11.663 13.907 10.6266 12.982C9.82029 12.2624 9.27514 11.3739 9.11717 11.1018C8.95919 10.8306 9.10073 10.6836 9.23588 10.5484C9.35824 10.427 9.50708 10.2316 9.64314 10.0727C9.78103 9.91562 9.82577 9.80239 9.91709 9.62068C10.0075 9.43987 9.96274 9.28098 9.89426 9.14493C9.82577 9.00978 9.28336 7.67384 9.05781 7.13052C8.83683 6.6018 8.61311 6.67303 8.44692 6.66481L7.92642 6.65568C7.74562 6.65568 7.45159 6.72325 7.20321 6.99537C6.95484 7.26749 6.25354 7.92313 6.25354 9.25907C6.25354 10.595 7.22604 11.8853 7.36119 12.0661C7.49724 12.2469 9.27423 14.9882 11.9963 16.1634C12.6437 16.4428 13.1496 16.6099 13.5432 16.735C14.1934 16.9414 14.7851 16.9122 15.2526 16.8428C15.774 16.7652 16.8579 16.1862 17.0844 15.5525C17.3108 14.9179 17.3108 14.3745 17.2424 14.2613Z" fill="#D9D9D9"/>
</svg>
