<svg width="15" height="20" viewBox="0 0 15 20" fill="none" xmlns="http://www.w3.org/2000/svg">
<path d="M12.2962 19.9999C11.9974 20.0006 11.7021 19.9535 11.4321 19.8621C11.1621 19.7706 10.9242 19.6371 10.7359 19.4714L1.0742 10.9008C0.779981 10.6452 0.61914 10.3246 0.61914 9.9937C0.61914 9.66284 0.779981 9.34224 1.0742 9.08664L11.076 0.516027C11.4155 0.224316 11.9034 0.0408703 12.4324 0.00604546C12.9613 -0.0287794 13.488 0.0878695 13.8965 0.33033C14.305 0.572791 14.5619 0.921203 14.6107 1.29892C14.6594 1.67664 14.4961 2.05272 14.1566 2.34443L5.21494 10.0008L13.8565 17.6573C14.1011 17.8669 14.2565 18.1223 14.3043 18.393C14.352 18.6638 14.2902 18.9386 14.126 19.1851C13.9619 19.4315 13.7023 19.6392 13.3781 19.7836C13.0538 19.928 12.6784 20.0031 12.2962 19.9999Z" fill="#F6F0E6"/>
</svg>
