<svg width="32" height="31" viewBox="0 0 32 31" fill="none" xmlns="http://www.w3.org/2000/svg">
<path d="M10.4388 0.00919486C9.4603 -0.082207 8.54964 0.515513 8.29958 1.4596L7.40285 4.84327C18.763 5.1734 26.4479 12.6972 26.9287 23.9054L30.3763 22.9565C31.3281 22.6943 31.9197 21.7731 31.8065 20.7977C30.5422 9.9269 21.4532 1.04167 10.4388 0.00919486ZM6.89847 6.74407L0.852662 29.5639C0.808711 29.7296 0.809559 29.904 0.85512 30.0693C0.900681 30.2347 0.989344 30.3852 1.11217 30.5056C1.23499 30.6261 1.38762 30.7122 1.55467 30.7554C1.72172 30.7986 1.89728 30.7972 2.06364 30.7515L25.0117 24.4315C24.7531 13.9149 17.5593 6.86433 6.89847 6.74647V6.74407ZM8.56962 25.0154C8.18641 25.0154 7.8118 24.9026 7.49317 24.6911C7.17454 24.4797 6.9262 24.1792 6.77955 23.8275C6.6329 23.4759 6.59453 23.089 6.66929 22.7158C6.74405 22.3425 6.92858 21.9996 7.19956 21.7305C7.47053 21.4614 7.81577 21.2781 8.19162 21.2039C8.56747 21.1296 8.95705 21.1678 9.3111 21.3134C9.66514 21.459 9.96775 21.7057 10.1806 22.0221C10.3936 22.3386 10.5072 22.7106 10.5072 23.0912C10.5072 23.6015 10.3031 24.091 9.93969 24.4518C9.57632 24.8127 9.0835 25.0154 8.56962 25.0154ZM11.476 15.8752C11.0928 15.8752 10.7181 15.7624 10.3995 15.5509C10.0809 15.3395 9.83254 15.039 9.68589 14.6874C9.53924 14.3358 9.50087 13.9488 9.57564 13.5756C9.6504 13.2023 9.83493 12.8594 10.1059 12.5903C10.3769 12.3212 10.7221 12.138 11.098 12.0637C11.4738 11.9895 11.8634 12.0276 12.2174 12.1732C12.5715 12.3189 12.8741 12.5655 13.087 12.8819C13.2999 13.1984 13.4135 13.5704 13.4135 13.951C13.4135 14.4613 13.2094 14.9508 12.846 15.3116C12.4827 15.6725 11.9898 15.8752 11.476 15.8752ZM17.7731 22.129C17.3898 22.129 17.0152 22.0162 16.6966 21.8047C16.378 21.5933 16.1296 21.2928 15.983 20.9412C15.8363 20.5896 15.798 20.2027 15.8727 19.8294C15.9475 19.4561 16.132 19.1133 16.403 18.8441C16.674 18.575 17.0192 18.3918 17.3951 18.3175C17.7709 18.2433 18.1605 18.2814 18.5145 18.427C18.8686 18.5727 19.1712 18.8193 19.3841 19.1357C19.597 19.4522 19.7106 19.8242 19.7106 20.2048C19.7106 20.7151 19.5065 21.2046 19.1431 21.5654C18.7798 21.9263 18.2869 22.129 17.7731 22.129Z" fill="#1E1E1E"/>
</svg>
